<svg xmlns="http://www.w3.org/2000/svg" viewBox="0 0 83.52 20.28"><defs><style>.cls-1{fill:#4d4d4d;}</style></defs><title>资源 2</title><g id="图层_2" data-name="图层 2"><g id="图层_1-2" data-name="图层 1"><path class="cls-1" d="M6.53,19.81H1.43A1.43,1.43,0,0,1,0,18.4v-17H1.62V17.78a.81.81,0,0,0,.81.81h4.1Zm-.42-17c.4,4,.87,7.11,1.51,10.65H6C5.34,9.9,4.85,6.36,4.48,2.84Zm11,17.42a71.46,71.46,0,0,1-5-10.78A70.65,70.65,0,0,1,9,20.26H7.3A72.21,72.21,0,0,0,11.85.06h1.62A77.14,77.14,0,0,1,12.36,8.2h.92a77.29,77.29,0,0,0,5.53,12.06Z"/><path class="cls-1" d="M21.47,1.92A1.41,1.41,0,0,1,22.88.49H38.61A1.43,1.43,0,0,1,40,1.92V18.68a1.43,1.43,0,0,1-1.41,1.43H22.88a1.41,1.41,0,0,1-1.41-1.43Zm16.93.6a.81.81,0,0,0-.81-.81H23.9a.81.81,0,0,0-.81.81V18.08a.81.81,0,0,0,.81.81H37.59a.81.81,0,0,0,.81-.81Zm-14.5,5a24.7,24.7,0,0,0,2.29-5.19h1.62L27.23,4h9a.88.88,0,0,1,.7,1.41,13.19,13.19,0,0,1-4.31,3.86,15.17,15.17,0,0,0,4.93,1.82v1.47a17.35,17.35,0,0,1-6.46-2.43,26.6,26.6,0,0,1-7.15,2.43V11.06a23.73,23.73,0,0,0,5.69-1.92,24.56,24.56,0,0,1-3.35-2.86c-.21.42-.42.85-.66,1.26Zm1.33,7.81,11.23,1.28V18L25.23,16.67Zm1.13-2.82,9.39,1.05v1.34l-9.39-1.07Zm.81-7.41a20,20,0,0,0,4,3.23,13.19,13.19,0,0,0,4-3.23Z"/><path class="cls-1" d="M44.76,7.13a.82.82,0,0,0-.82-.81H42V5.1H45a1.41,1.41,0,0,1,1.41,1.43v11.7a.81.81,0,0,0,.83.81h1.6v1.22H46.19a1.41,1.41,0,0,1-1.43-1.41Zm0-3.27L43.94,0h1.63l.85,3.86Zm5.48,16.4,2-7.9H54l-2,7.9ZM60.17.73a1.45,1.45,0,0,1,1.45,1.43V9.31a1.43,1.43,0,0,1-1.45,1.43h-8a1.47,1.47,0,0,1-1.49-1.43V2.16A1.48,1.48,0,0,1,52.16.73ZM59.12,9.52A.82.82,0,0,0,60,8.71v-6a.83.83,0,0,0-.83-.81H53.21a.83.83,0,0,0-.83.81v6a.84.84,0,0,0,.83.81ZM60.4,20.26l-2-7.9H60.1l2,7.9Z"/><path class="cls-1" d="M67,20.28V14.07l-3.54.49V13.34L67,12.85V6.3H65.31c-.09,1.26-.22,2.47-.39,3.67H63.34a77.29,77.29,0,0,0,.6-8.52h1.58c0,1.24-.06,2.46-.13,3.63H67V0h1.58V5.08h2.26V6.3H68.53v6.34l2.26-.32v1.21l-2.26.32v6.43ZM71.2,8.35A53,53,0,0,0,72.76,0h1.51c-.08.77-.17,1.52-.27,2.24h8.13a1.41,1.41,0,0,1,1.39,1.43V18.81a1.38,1.38,0,0,1-1.39,1.4H79.67V19h1.46a.8.8,0,0,0,.79-.81V3.86a.41.41,0,0,0-.39-.4h-.45A92.63,92.63,0,0,1,77,20.21h-1.7A91,91,0,0,0,79.52,3.46H77.16a93.47,93.47,0,0,1-4.1,16.75H71.33A91.81,91.81,0,0,0,75.6,3.46H73.83a46,46,0,0,1-1.07,4.89Z"/></g></g></svg>