<svg xmlns="http://www.w3.org/2000/svg" viewBox="0 0 137.21 20.58"><defs><style>.cls-1{fill:#4d4d4d;}</style></defs><title>资源 3</title><g id="图层_2" data-name="图层 2"><g id="图层_1-2" data-name="图层 1"><path class="cls-1" d="M6.53,20.06H1.43A1.42,1.42,0,0,1,0,18.66v-17H1.62V18a.81.81,0,0,0,.81.81h4.1Zm-.42-17C6.51,7,7,10.2,7.62,13.75H6C5.34,10.16,4.85,6.62,4.48,3.1Zm11,17.41a71,71,0,0,1-5-10.78A70,70,0,0,1,9,20.51H7.3A72.14,72.14,0,0,0,11.85.32h1.62a77,77,0,0,1-1.11,8.13h.92a76.87,76.87,0,0,0,5.53,12.06Z"/><path class="cls-1" d="M21.47,2.18A1.41,1.41,0,0,1,22.88.75H38.61A1.43,1.43,0,0,1,40,2.18V18.93a1.43,1.43,0,0,1-1.41,1.43H22.88a1.41,1.41,0,0,1-1.41-1.43Zm16.93.59A.81.81,0,0,0,37.59,2H23.9a.82.82,0,0,0-.81.81V18.34a.82.82,0,0,0,.81.81H37.59a.81.81,0,0,0,.81-.81Zm-14.5,5A24.7,24.7,0,0,0,26.19,2.6h1.62l-.58,1.63h9a.88.88,0,0,1,.7,1.41A13.3,13.3,0,0,1,32.61,9.5a14.91,14.91,0,0,0,4.93,1.81v1.48a17.2,17.2,0,0,1-6.46-2.44,26.62,26.62,0,0,1-7.15,2.44V11.31a23.29,23.29,0,0,0,5.69-1.92,23.88,23.88,0,0,1-3.35-2.86c-.21.43-.42.86-.66,1.26Zm1.33,7.81,11.23,1.28v1.33L25.23,16.93Zm1.13-2.81,9.39,1v1.35l-9.39-1.07Zm.81-7.41a20,20,0,0,0,4,3.22,13,13,0,0,0,4-3.22Z"/><path class="cls-1" d="M44.76,7.39a.82.82,0,0,0-.82-.82H42V5.36H45a1.41,1.41,0,0,1,1.41,1.43v11.7a.82.82,0,0,0,.83.81h1.6v1.21H46.19a1.41,1.41,0,0,1-1.43-1.41Zm0-3.27L43.94.26h1.63l.85,3.86Zm5.48,16.39,2-7.89H54l-2,7.89ZM60.17,1a1.45,1.45,0,0,1,1.45,1.43V9.56A1.43,1.43,0,0,1,60.17,11h-8a1.47,1.47,0,0,1-1.49-1.43V2.41A1.48,1.48,0,0,1,52.16,1Zm-1.05,8.8A.83.83,0,0,0,60,9V3a.82.82,0,0,0-.83-.81H53.21a.82.82,0,0,0-.83.81V9a.84.84,0,0,0,.83.81ZM60.4,20.51l-2-7.89H60.1l2,7.89Z"/><path class="cls-1" d="M67,20.53V14.32l-3.54.49V13.6L67,13.11V6.55H65.31c-.09,1.26-.22,2.48-.39,3.67H63.34a76.94,76.94,0,0,0,.6-8.51h1.58c0,1.24-.06,2.45-.13,3.63H67V.26h1.58V5.34h2.26V6.55H68.53v6.34l2.26-.32v1.22l-2.26.32v6.42ZM71.2,8.6A52.91,52.91,0,0,0,72.76.26h1.51C74.19,1,74.1,1.77,74,2.5h8.13a1.41,1.41,0,0,1,1.39,1.43V19.06a1.39,1.39,0,0,1-1.39,1.41H79.67V19.25h1.46a.8.8,0,0,0,.79-.81V4.12a.42.42,0,0,0-.39-.41h-.45A92.74,92.74,0,0,1,77,20.47h-1.7A90.88,90.88,0,0,0,79.52,3.71H77.16a93.58,93.58,0,0,1-4.1,16.76H71.33A91.71,91.71,0,0,0,75.6,3.71H73.83A45.44,45.44,0,0,1,72.76,8.6Z"/><path class="cls-1" d="M100.48,14.39c0,3.56-2.69,6.14-7.79,6.19-4.84,0-7.43-2.8-7.43-6.19V6.17C85.26,2.8,87.85,0,92.69,0c5.36,0,7.79,2.43,7.79,6.17Zm-13.57-.24c0,2.86,2,4.93,5.85,4.93,4.2,0,6.1-2.24,6.1-4.93V6.43c0-3.53-2.26-5-6.17-4.94-3.52.05-5.78,1.8-5.78,4.94Z"/><path class="cls-1" d="M103.23,14.26V6.57c0-4.18,2.59-6.57,7.43-6.57,5.32,0,7.79,2.39,7.79,6.57V7.71h-1.6V6.21c0-2.94-2.07-5-6.12-5-3.68,0-5.9,2.15-5.9,5V14c0,3.93,3.12,5.15,6,5.15,3.57,0,6-1.13,6-5.15V13h1.6v1.3c0,3.56-2.3,6.27-7.64,6.17C106.52,20.36,103.23,18.55,103.23,14.26Z"/><path class="cls-1" d="M120.46,1.73A1.44,1.44,0,0,1,121.93.3h10.61a3.16,3.16,0,0,1,3.18,3.09V8.24a3.16,3.16,0,0,1-3.18,3.12h-.73l5.4,9.15h-1.94L130,11.36h-7.86v9.15h-1.66ZM123,1.54a.82.82,0,0,0-.83.83v7.75h9.8a2.11,2.11,0,0,0,2.13-2.07V3.61a2.09,2.09,0,0,0-2.13-2.07Z"/></g></g></svg>